<?xml version="1.0" encoding="UTF-8"?>
<svg width="200px" height="200px" viewBox="0 0 200 200" version="1.1" xmlns="http://www.w3.org/2000/svg" xmlns:xlink="http://www.w3.org/1999/xlink">
    <!-- Generator: Sketch 60.1 (88133) - https://sketch.com -->
    <title>svg/Files</title>
    <desc>Created with Sketch.</desc>
    <g id="User-Flows" stroke="none" stroke-width="1" fill="none" fill-rule="evenodd">
        <g id="Files">
            <rect fill="#FFFFFF" x="0" y="0" width="200" height="200"></rect>
            <g id="Background" fill="#1A8DE6" fill-opacity="0.1">
                <rect id="Rectangle" x="0" y="0" width="200" height="200"></rect>
            </g>
            <g id="File" transform="translate(28.000000, 25.000000)" fill="#1A8DE6" fill-opacity="0.5">
                <polygon id="Rectangle" points="0 0 20.9863009 0 27 6.65174577 27 35 0 35"></polygon>
                <polygon id="Triangle" transform="translate(22.542194, 4.828382) rotate(44.000000) translate(-22.542194, -4.828382) " points="22.6895933 7.22081456 27.0154864 3.04334812 18.0689024 2.43594909"></polygon>
            </g>
            <g id="Text-/-Text" transform="translate(27.000000, 64.000000)" fill="#1A8DE6" fill-opacity="0.1">
                <rect id="Rectangle" x="0" y="0" width="29" height="4"></rect>
            </g>
            <g id="File" transform="translate(67.000000, 25.000000)" fill="#1A8DE6" fill-opacity="0.5">
                <polygon id="Rectangle" points="0 0 20.9863009 0 27 6.65174577 27 35 0 35"></polygon>
                <polygon id="Triangle" transform="translate(22.542194, 4.828382) rotate(44.000000) translate(-22.542194, -4.828382) " points="22.6895933 7.22081456 27.0154864 3.04334812 18.0689024 2.43594909"></polygon>
            </g>
            <g id="Text-/-Text" transform="translate(66.000000, 64.000000)" fill="#1A8DE6" fill-opacity="0.1">
                <rect id="Rectangle" x="0" y="0" width="29" height="4"></rect>
            </g>
            <g id="File" transform="translate(106.000000, 25.000000)" fill="#1A8DE6" fill-opacity="0.5">
                <polygon id="Rectangle" points="0 0 20.9863009 0 27 6.65174577 27 35 0 35"></polygon>
                <polygon id="Triangle" transform="translate(22.542194, 4.828382) rotate(44.000000) translate(-22.542194, -4.828382) " points="22.6895933 7.22081456 27.0154864 3.04334812 18.0689024 2.43594909"></polygon>
            </g>
            <g id="Text-/-Text" transform="translate(105.000000, 64.000000)" fill="#1A8DE6" fill-opacity="0.1">
                <rect id="Rectangle" x="0" y="0" width="29" height="4"></rect>
            </g>
            <g id="File" transform="translate(145.000000, 25.000000)" fill="#1A8DE6" fill-opacity="0.5">
                <polygon id="Rectangle" points="0 0 20.9863009 0 27 6.65174577 27 35 0 35"></polygon>
                <polygon id="Triangle" transform="translate(22.542194, 4.828382) rotate(44.000000) translate(-22.542194, -4.828382) " points="22.6895933 7.22081456 27.0154864 3.04334812 18.0689024 2.43594909"></polygon>
            </g>
            <g id="Text-/-Text" transform="translate(144.000000, 64.000000)" fill="#1A8DE6" fill-opacity="0.1">
                <rect id="Rectangle" x="0" y="0" width="29" height="4"></rect>
            </g>
            <g id="Text-/-Text" transform="translate(27.000000, 118.000000)" fill="#1A8DE6" fill-opacity="0.1">
                <rect id="Rectangle" x="0" y="0" width="29" height="4"></rect>
            </g>
            <g id="Text-/-Text" transform="translate(66.000000, 118.000000)" fill="#1A8DE6" fill-opacity="0.1">
                <rect id="Rectangle" x="0" y="0" width="29" height="4"></rect>
            </g>
            <g id="Text-/-Text" transform="translate(105.000000, 118.000000)" fill="#1A8DE6" fill-opacity="0.1">
                <rect id="Rectangle" x="0" y="0" width="29" height="4"></rect>
            </g>
            <g id="Text-/-Text" transform="translate(144.000000, 118.000000)" fill="#1A8DE6" fill-opacity="0.1">
                <rect id="Rectangle" x="0" y="0" width="29" height="4"></rect>
            </g>
            <g id="Text-/-Text" transform="translate(28.000000, 172.000000)" fill="#1A8DE6" fill-opacity="0.1">
                <rect id="Rectangle" x="0" y="0" width="29" height="4"></rect>
            </g>
            <g id="Text-/-Text" transform="translate(67.000000, 172.000000)" fill="#1A8DE6" fill-opacity="0.1">
                <rect id="Rectangle" x="0" y="0" width="29" height="4"></rect>
            </g>
            <g id="Text-/-Text" transform="translate(106.000000, 172.000000)" fill="#1A8DE6" fill-opacity="0.1">
                <rect id="Rectangle" x="0" y="0" width="29" height="4"></rect>
            </g>
            <g id="Text-/-Text" transform="translate(145.000000, 172.000000)" fill="#1A8DE6" fill-opacity="0.1">
                <rect id="Rectangle" x="0" y="0" width="29" height="4"></rect>
            </g>
            <g id="File" transform="translate(28.000000, 79.000000)" fill="#1A8DE6" fill-opacity="0.5">
                <polygon id="Rectangle" points="0 0 20.9863009 0 27 6.65174577 27 35 0 35"></polygon>
                <polygon id="Triangle" transform="translate(22.542194, 4.828382) rotate(44.000000) translate(-22.542194, -4.828382) " points="22.6895933 7.22081456 27.0154864 3.04334812 18.0689024 2.43594909"></polygon>
            </g>
            <g id="File" transform="translate(67.000000, 79.000000)" fill="#1A8DE6" fill-opacity="0.5">
                <polygon id="Rectangle" points="0 0 20.9863009 0 27 6.65174577 27 35 0 35"></polygon>
                <polygon id="Triangle" transform="translate(22.542194, 4.828382) rotate(44.000000) translate(-22.542194, -4.828382) " points="22.6895933 7.22081456 27.0154864 3.04334812 18.0689024 2.43594909"></polygon>
            </g>
            <g id="File" transform="translate(106.000000, 79.000000)" fill="#1A8DE6" fill-opacity="0.5">
                <polygon id="Rectangle" points="0 0 20.9863009 0 27 6.65174577 27 35 0 35"></polygon>
                <polygon id="Triangle" transform="translate(22.542194, 4.828382) rotate(44.000000) translate(-22.542194, -4.828382) " points="22.6895933 7.22081456 27.0154864 3.04334812 18.0689024 2.43594909"></polygon>
            </g>
            <g id="File" transform="translate(145.000000, 79.000000)" fill="#1A8DE6" fill-opacity="0.5">
                <polygon id="Rectangle" points="0 0 20.9863009 0 27 6.65174577 27 35 0 35"></polygon>
                <polygon id="Triangle" transform="translate(22.542194, 4.828382) rotate(44.000000) translate(-22.542194, -4.828382) " points="22.6895933 7.22081456 27.0154864 3.04334812 18.0689024 2.43594909"></polygon>
            </g>
            <g id="File" transform="translate(29.000000, 133.000000)" fill="#1A8DE6" fill-opacity="0.5">
                <polygon id="Rectangle" points="0 0 20.9863009 0 27 6.65174577 27 35 0 35"></polygon>
                <polygon id="Triangle" transform="translate(22.542194, 4.828382) rotate(44.000000) translate(-22.542194, -4.828382) " points="22.6895933 7.22081456 27.0154864 3.04334812 18.0689024 2.43594909"></polygon>
            </g>
            <g id="File" transform="translate(68.000000, 133.000000)" fill="#1A8DE6" fill-opacity="0.5">
                <polygon id="Rectangle" points="0 0 20.9863009 0 27 6.65174577 27 35 0 35"></polygon>
                <polygon id="Triangle" transform="translate(22.542194, 4.828382) rotate(44.000000) translate(-22.542194, -4.828382) " points="22.6895933 7.22081456 27.0154864 3.04334812 18.0689024 2.43594909"></polygon>
            </g>
            <g id="File" transform="translate(107.000000, 133.000000)" fill="#1A8DE6" fill-opacity="0.5">
                <polygon id="Rectangle" points="0 0 20.9863009 0 27 6.65174577 27 35 0 35"></polygon>
                <polygon id="Triangle" transform="translate(22.542194, 4.828382) rotate(44.000000) translate(-22.542194, -4.828382) " points="22.6895933 7.22081456 27.0154864 3.04334812 18.0689024 2.43594909"></polygon>
            </g>
            <g id="File" transform="translate(146.000000, 133.000000)" fill="#1A8DE6" fill-opacity="0.5">
                <polygon id="Rectangle" points="0 0 20.9863009 0 27 6.65174577 27 35 0 35"></polygon>
                <polygon id="Triangle" transform="translate(22.542194, 4.828382) rotate(44.000000) translate(-22.542194, -4.828382) " points="22.6895933 7.22081456 27.0154864 3.04334812 18.0689024 2.43594909"></polygon>
            </g>
        </g>
    </g>
</svg>