<?xml version="1.0" encoding="UTF-8"?>
<svg width="200px" height="200px" viewBox="0 0 200 200" version="1.1" xmlns="http://www.w3.org/2000/svg" xmlns:xlink="http://www.w3.org/1999/xlink">
    <!-- Generator: Sketch 60.1 (88133) - https://sketch.com -->
    <title>svg/Form</title>
    <desc>Created with Sketch.</desc>
    <g id="User-Flows" stroke="none" stroke-width="1" fill="none" fill-rule="evenodd">
        <g id="Form">
            <rect fill="#FFFFFF" x="0" y="0" width="200" height="200"></rect>
            <g id="Background" fill="#1A8DE6" fill-opacity="0.1">
                <rect id="Rectangle" x="0" y="0" width="200" height="200"></rect>
            </g>
            <rect id="Rectangle" fill-opacity="0.25" fill="#1A8DE6" x="26" y="30" width="149" height="154" rx="2"></rect>
            <g id="Input-/-Select" transform="translate(42.000000, 90.000000)">
                <g id="Input-/-Text">
                    <rect id="Rectangle" fill="#FFFFFF" x="0" y="0" width="116" height="12" rx="1"></rect>
                    <rect id="Rectangle" fill-opacity="0.5" fill="#1A8DE6" x="0" y="11" width="116" height="1"></rect>
                </g>
                <g id="Text-/-Text" transform="translate(4.578947, 4.000000)" fill="#1A8DE6" fill-opacity="0.1">
                    <rect id="Rectangle" x="0" y="0" width="67.1578947" height="4"></rect>
                </g>
                <polygon id="Triangle" fill="#1A8DE6" transform="translate(109.500000, 5.500000) rotate(180.000000) translate(-109.500000, -5.500000) " points="109.5 4 112 7 107 7"></polygon>
            </g>
            <g id="Input-/-Text" transform="translate(42.000000, 53.000000)">
                <rect id="Rectangle" fill="#FFFFFF" x="0" y="0" width="116" height="12" rx="1"></rect>
                <rect id="Rectangle" fill-opacity="0.5" fill="#1A8DE6" x="0" y="11" width="116" height="1"></rect>
            </g>
            <g id="Button" transform="translate(117.000000, 166.000000)" fill="#1A8DE6" fill-opacity="0.5">
                <rect id="Rectangle" x="0" y="0" width="41" height="10" rx="2"></rect>
            </g>
            <g id="Text-/-Title" transform="translate(42.000000, 41.000000)" fill="#1A8DE6" fill-opacity="0.25">
                <rect id="Rectangle" x="0" y="0" width="72" height="6"></rect>
            </g>
            <g id="Text-/-Title" transform="translate(42.000000, 78.000000)" fill="#1A8DE6" fill-opacity="0.25">
                <rect id="Rectangle" x="0" y="0" width="34" height="6"></rect>
            </g>
            <g id="Text-/-Title" transform="translate(42.000000, 115.000000)" fill="#1A8DE6" fill-opacity="0.25">
                <rect id="Rectangle" x="0" y="0" width="57" height="6"></rect>
            </g>
            <g id="Input-/-Text" transform="translate(42.000000, 127.000000)">
                <rect id="Rectangle" fill="#FFFFFF" x="0" y="0" width="116" height="26" rx="1"></rect>
                <rect id="Rectangle" fill-opacity="0.5" fill="#1A8DE6" x="0" y="25" width="116" height="1"></rect>
            </g>
            <g id="Text-/-Title" transform="translate(26.000000, 16.000000)" fill="#1A8DE6" fill-opacity="0.25">
                <rect id="Rectangle" x="0" y="0" width="60" height="6"></rect>
            </g>
        </g>
    </g>
</svg>