<?xml version="1.0" encoding="UTF-8"?>
<svg width="200px" height="200px" viewBox="0 0 200 200" version="1.1" xmlns="http://www.w3.org/2000/svg" xmlns:xlink="http://www.w3.org/1999/xlink">
    <!-- Generator: Sketch 60.1 (88133) - https://sketch.com -->
    <title>svg/Pie chart</title>
    <desc>Created with Sketch.</desc>
    <g id="User-Flows" stroke="none" stroke-width="1" fill="none" fill-rule="evenodd">
        <g id="Pie-chart">
            <rect fill="#FFFFFF" x="0" y="0" width="200" height="200"></rect>
            <g id="Background" fill="#1A8DE6" fill-opacity="0.1">
                <rect id="Rectangle" x="0" y="0" width="200" height="200"></rect>
            </g>
            <text id="32%" font-family="Ubuntu" font-size="16" font-weight="normal" letter-spacing="0.120000005" fill="#000000" fill-opacity="0.87">
                <tspan x="41" y="96">32%</tspan>
            </text>
            <g id="Chart-/-Donut" transform="translate(26.000000, 59.000000)" fill="#1A8DE6" fill-opacity="0.25">
                <g id="Text-/-Title" transform="translate(1.000000, 76.000000)">
                    <rect id="Rectangle" x="0" y="0" width="60" height="6"></rect>
                </g>
                <path d="M31,0 C48.1208272,0 62,13.8791728 62,31 C62,48.1208272 48.1208272,62 31,62 C13.8791728,62 0,48.1208272 0,31 C0,13.8791728 13.8791728,0 31,0 Z M31,9 C18.8497355,9 9,18.8497355 9,31 C9,43.1502645 18.8497355,53 31,53 C43.1502645,53 53,43.1502645 53,31 C53,18.8497355 43.1502645,9 31,9 Z" id="Combined-Shape"></path>
                <path d="M31,5.68434189e-14 C48.1208272,5.68434189e-14 62,13.8791728 62,31 C62,39.7154606 58.4033781,47.5908852 52.613391,53.2230171 L46.479843,46.6324833 C50.5059955,42.6453992 53,37.1139526 53,31 C53,18.8497355 43.1502645,9 31,9 L31,5.68434189e-14 L31,5.68434189e-14 Z" id="Combined-Shape"></path>
            </g>
            <g id="Chart-/-Pie" transform="translate(112.000000, 56.000000)" fill="#1A8DE6">
                <g id="Text-/-Title" transform="translate(11.000000, 79.000000)" fill-opacity="0.25">
                    <rect id="Rectangle" x="0" y="0" width="40" height="6"></rect>
                </g>
                <path d="M31,3 L31,34 L59.6985379,22.256917 C61.1821229,25.8788064 62,29.8438905 62,34 C62,51.1208272 48.1208272,65 31,65 C13.8791728,65 0,51.1208272 0,34 C0,16.8791728 13.8791728,3 31,3 L31,3 Z" id="Combined-Shape" fill-opacity="0.25"></path>
                <path d="M33,0 C45.9651007,0 57.0712458,7.95913519 61.6989481,19.2579184 L33,31 Z" id="Combined-Shape"></path>
            </g>
        </g>
    </g>
</svg>