<?xml version="1.0" encoding="UTF-8"?>
<svg width="200px" height="200px" viewBox="0 0 200 200" version="1.1" xmlns="http://www.w3.org/2000/svg" xmlns:xlink="http://www.w3.org/1999/xlink">
    <!-- Generator: Sketch 60.1 (88133) - https://sketch.com -->
    <title>svg/Search</title>
    <desc>Created with Sketch.</desc>
    <defs>
        <rect id="path-1" x="0" y="0" width="30" height="24"></rect>
        <rect id="path-3" x="0" y="0" width="30" height="24"></rect>
        <rect id="path-5" x="0" y="0" width="30" height="24"></rect>
    </defs>
    <g id="User-Flows" stroke="none" stroke-width="1" fill="none" fill-rule="evenodd">
        <g id="Search">
            <rect fill="#FFFFFF" x="0" y="0" width="200" height="200"></rect>
            <g id="Background" fill="#1A8DE6" fill-opacity="0.1">
                <rect id="Rectangle" x="0" y="0" width="200" height="200"></rect>
            </g>
            <g id="Text-/-Paragraph-/-left" transform="translate(78.000000, 64.000000)" fill="#1A8DE6">
                <rect id="Rectangle" fill-opacity="0.1" x="0" y="7.2" width="74" height="2.4"></rect>
                <rect id="Rectangle" fill-opacity="0.1" x="0" y="12" width="74" height="2.4"></rect>
                <rect id="Rectangle" fill-opacity="0.1" x="0" y="16.8" width="74" height="2.4"></rect>
                <rect id="Rectangle" fill-opacity="0.1" x="0" y="21.6" width="35.8064516" height="2.4"></rect>
                <g id="Text-/-Title" fill-opacity="0.25">
                    <rect id="Rectangle" x="0" y="0" width="35.8064516" height="3.6"></rect>
                </g>
            </g>
            <g id="Image" transform="translate(42.000000, 64.000000)">
                <mask id="mask-2" fill="white">
                    <use xlink:href="#path-1"></use>
                </mask>
                <use id="Rectangle" fill-opacity="0.1" fill="#1A8DE6" fill-rule="evenodd" xlink:href="#path-1"></use>
                <circle id="Oval" fill-opacity="0.5" fill="#1A8DE6" fill-rule="evenodd" mask="url(#mask-2)" cx="11.0416667" cy="5.2173913" r="4"></circle>
                <polygon id="Triangle" fill-opacity="0.1" fill="#1A8DE6" fill-rule="evenodd" mask="url(#mask-2)" points="6.5625 10.9565217 23.125 30.2608696 -10 30.2608696"></polygon>
                <polygon id="Triangle" fill-opacity="0.1" fill="#1A8DE6" fill-rule="evenodd" mask="url(#mask-2)" points="20.7291667 4.69565217 37.2916667 24 4.16666667 24"></polygon>
            </g>
            <g id="Text-/-Paragraph-/-left" transform="translate(78.000000, 104.000000)" fill="#1A8DE6">
                <rect id="Rectangle" fill-opacity="0.1" x="0" y="7.2" width="74" height="2.4"></rect>
                <rect id="Rectangle" fill-opacity="0.1" x="0" y="12" width="74" height="2.4"></rect>
                <rect id="Rectangle" fill-opacity="0.1" x="0" y="16.8" width="74" height="2.4"></rect>
                <rect id="Rectangle" fill-opacity="0.1" x="0" y="21.6" width="35.8064516" height="2.4"></rect>
                <g id="Text-/-Title" fill-opacity="0.25">
                    <rect id="Rectangle" x="0" y="0" width="35.8064516" height="3.6"></rect>
                </g>
            </g>
            <g id="Image" transform="translate(42.000000, 104.000000)">
                <mask id="mask-4" fill="white">
                    <use xlink:href="#path-3"></use>
                </mask>
                <use id="Rectangle" fill-opacity="0.1" fill="#1A8DE6" fill-rule="evenodd" xlink:href="#path-3"></use>
                <circle id="Oval" fill-opacity="0.5" fill="#1A8DE6" fill-rule="evenodd" mask="url(#mask-4)" cx="11.0416667" cy="5.2173913" r="4"></circle>
                <polygon id="Triangle" fill-opacity="0.1" fill="#1A8DE6" fill-rule="evenodd" mask="url(#mask-4)" points="6.5625 10.9565217 23.125 30.2608696 -10 30.2608696"></polygon>
                <polygon id="Triangle" fill-opacity="0.1" fill="#1A8DE6" fill-rule="evenodd" mask="url(#mask-4)" points="20.7291667 4.69565217 37.2916667 24 4.16666667 24"></polygon>
            </g>
            <g id="Text-/-Paragraph-/-left" transform="translate(78.000000, 144.000000)" fill="#1A8DE6">
                <rect id="Rectangle" fill-opacity="0.1" x="0" y="7.2" width="74" height="2.4"></rect>
                <rect id="Rectangle" fill-opacity="0.1" x="0" y="12" width="74" height="2.4"></rect>
                <rect id="Rectangle" fill-opacity="0.1" x="0" y="16.8" width="74" height="2.4"></rect>
                <rect id="Rectangle" fill-opacity="0.1" x="0" y="21.6" width="35.8064516" height="2.4"></rect>
                <g id="Text-/-Title" fill-opacity="0.25">
                    <rect id="Rectangle" x="0" y="0" width="35.8064516" height="3.6"></rect>
                </g>
            </g>
            <g id="Image" transform="translate(42.000000, 144.000000)">
                <mask id="mask-6" fill="white">
                    <use xlink:href="#path-5"></use>
                </mask>
                <use id="Rectangle" fill-opacity="0.1" fill="#1A8DE6" fill-rule="evenodd" xlink:href="#path-5"></use>
                <circle id="Oval" fill-opacity="0.5" fill="#1A8DE6" fill-rule="evenodd" mask="url(#mask-6)" cx="11.0416667" cy="5.2173913" r="4"></circle>
                <polygon id="Triangle" fill-opacity="0.1" fill="#1A8DE6" fill-rule="evenodd" mask="url(#mask-6)" points="6.5625 10.9565217 23.125 30.2608696 -10 30.2608696"></polygon>
                <polygon id="Triangle" fill-opacity="0.1" fill="#1A8DE6" fill-rule="evenodd" mask="url(#mask-6)" points="20.7291667 4.69565217 37.2916667 24 4.16666667 24"></polygon>
            </g>
            <g id="Symbol-/-Search" transform="translate(24.000000, 36.000000)" fill="#1A8DE6">
                <polygon id="Rectangle" transform="translate(8.571429, 8.571429) rotate(-45.000000) translate(-8.571429, -8.571429) " points="7.71428571 5.14285714 9.42857143 5.14285714 9.42857143 12 7.71428571 12"></polygon>
                <path d="M4.28571429,0 C6.65264893,0 8.57142857,1.91877964 8.57142857,4.28571429 C8.57142857,6.65264893 6.65264893,8.57142857 4.28571429,8.57142857 C1.91877964,8.57142857 0,6.65264893 0,4.28571429 C0,1.91877964 1.91877964,0 4.28571429,0 Z M4.28571429,1.71428571 C2.8655535,1.71428571 1.71428571,2.8655535 1.71428571,4.28571429 C1.71428571,5.70587507 2.8655535,6.85714286 4.28571429,6.85714286 C5.70587507,6.85714286 6.85714286,5.70587507 6.85714286,4.28571429 C6.85714286,2.8655535 5.70587507,1.71428571 4.28571429,1.71428571 Z" id="Combined-Shape"></path>
            </g>
            <g id="Text-/-Title" transform="translate(42.000000, 23.000000)" fill="#1A8DE6" fill-opacity="0.25">
                <rect id="Rectangle" x="0" y="0" width="60" height="6"></rect>
            </g>
            <g id="Input-/-Select" transform="translate(42.000000, 36.000000)">
                <g id="Input-/-Text">
                    <rect id="Rectangle" fill="#FFFFFF" x="0" y="0" width="124" height="12" rx="1"></rect>
                    <rect id="Rectangle" fill-opacity="0.5" fill="#1A8DE6" x="0" y="11" width="124" height="1"></rect>
                </g>
                <g id="Text-/-Text" transform="translate(4.894737, 4.000000)" fill="#1A8DE6" fill-opacity="0.1">
                    <rect id="Rectangle" x="0" y="0" width="71.7894737" height="4"></rect>
                </g>
                <polygon id="Triangle" fill="#1A8DE6" transform="translate(117.500000, 5.500000) rotate(180.000000) translate(-117.500000, -5.500000) " points="117.5 4 120 7 115 7"></polygon>
            </g>
        </g>
    </g>
</svg>