<?xml version="1.0" encoding="UTF-8"?>
<svg width="200px" height="200px" viewBox="0 0 200 200" version="1.1" xmlns="http://www.w3.org/2000/svg" xmlns:xlink="http://www.w3.org/1999/xlink">
    <!-- Generator: Sketch 60.1 (88133) - https://sketch.com -->
    <title>svg/Article</title>
    <desc>Created with Sketch.</desc>
    <defs>
        <rect id="path-1" x="0" y="0" width="144" height="81"></rect>
    </defs>
    <g id="User-Flows" stroke="none" stroke-width="1" fill="none" fill-rule="evenodd">
        <g id="Article">
            <rect fill="#FFFFFF" x="0" y="0" width="200" height="200"></rect>
            <g id="Background" transform="translate(1.000000, 0.000000)" fill="#1A8DE6" fill-opacity="0.1">
                <rect id="Rectangle" x="0" y="0" width="200" height="200"></rect>
            </g>
            <g id="Image" transform="translate(29.000000, 14.000000)">
                <mask id="mask-2" fill="white">
                    <use xlink:href="#path-1"></use>
                </mask>
                <use id="Rectangle" fill-opacity="0.1" fill="#1A8DE6" fill-rule="evenodd" xlink:href="#path-1"></use>
                <circle id="Oval" fill-opacity="0.5" fill="#1A8DE6" fill-rule="evenodd" mask="url(#mask-2)" cx="53" cy="17.6086957" r="4"></circle>
                <polygon id="Triangle" fill-opacity="0.1" fill="#1A8DE6" fill-rule="evenodd" mask="url(#mask-2)" points="31.5 36.9782609 111 102.130435 -48 102.130435"></polygon>
                <polygon id="Triangle" fill-opacity="0.1" fill="#1A8DE6" fill-rule="evenodd" mask="url(#mask-2)" points="99.5 15.8478261 179 81 20 81"></polygon>
            </g>
            <g id="Text-/-Paragraph-/-center" transform="translate(29.000000, 107.000000)" fill="#1A8DE6">
                <rect id="Rectangle" fill-opacity="0.1" x="0" y="12" width="144" height="4"></rect>
                <rect id="Rectangle" fill-opacity="0.1" x="0" y="20" width="144" height="4"></rect>
                <rect id="Rectangle" fill-opacity="0.1" x="0" y="28" width="144" height="4"></rect>
                <rect id="Rectangle" fill-opacity="0.1" x="0" y="36" width="69.6774194" height="4"></rect>
                <g id="Text-/-Title" transform="translate(34.838710, 0.000000)" fill-opacity="0.25">
                    <rect id="Rectangle" x="0" y="0" width="69.6774194" height="6"></rect>
                </g>
            </g>
            <g id="Text-/-Paragraph-/-center" transform="translate(29.000000, 161.000000)" fill="#1A8DE6">
                <rect id="Rectangle" fill-opacity="0.1" x="0" y="12" width="144" height="4"></rect>
                <rect id="Rectangle" fill-opacity="0.1" x="0" y="20" width="144" height="4"></rect>
                <rect id="Rectangle" fill-opacity="0.1" x="0" y="28" width="144" height="4"></rect>
                <rect id="Rectangle" fill-opacity="0.1" x="0" y="36" width="69.6774194" height="4"></rect>
                <g id="Text-/-Title" transform="translate(34.838710, 0.000000)" fill-opacity="0.25">
                    <rect id="Rectangle" x="0" y="0" width="69.6774194" height="6"></rect>
                </g>
            </g>
        </g>
    </g>
</svg>