<?xml version="1.0" encoding="UTF-8"?>
<svg width="200px" height="200px" viewBox="0 0 200 200" version="1.1" xmlns="http://www.w3.org/2000/svg" xmlns:xlink="http://www.w3.org/1999/xlink">
    <!-- Generator: Sketch 60.1 (88133) - https://sketch.com -->
    <title>svg/Chat</title>
    <desc>Created with Sketch.</desc>
    <defs>
        <circle id="path-1" cx="11.5" cy="11.5" r="11.5"></circle>
        <circle id="path-3" cx="11.5" cy="11.5" r="11.5"></circle>
        <circle id="path-5" cx="11.5" cy="11.5" r="11.5"></circle>
    </defs>
    <g id="User-Flows" stroke="none" stroke-width="1" fill="none" fill-rule="evenodd">
        <g id="Chat">
            <rect fill="#FFFFFF" x="0" y="0" width="200" height="200"></rect>
            <g id="Background" fill="#1A8DE6" fill-opacity="0.1">
                <rect id="Rectangle" x="0" y="0" width="200" height="200"></rect>
            </g>
            <g id="Bubble" transform="translate(34.000000, 133.000000)">
                <path d="M0,42 L12,32.4 L12,2 C12,0.8954305 12.8954305,2.02906125e-16 14,0 L92,0 C93.1045695,-2.02906125e-16 94,0.8954305 94,2 L94,40 C94,41.1045695 93.1045695,42 92,42 L0,42 Z" id="Combined-Shape" fill="#FFFFFF"></path>
                <g id="Text-/-Text" transform="translate(22.000000, 8.000000)" fill="#1A8DE6" fill-opacity="0.1">
                    <rect id="Rectangle" x="0" y="0" width="56" height="4"></rect>
                </g>
                <g id="Text-/-Text" transform="translate(22.000000, 16.000000)" fill="#1A8DE6" fill-opacity="0.1">
                    <rect id="Rectangle" x="0" y="0" width="56" height="4"></rect>
                </g>
                <g id="Text-/-Text" transform="translate(22.000000, 24.000000)" fill="#1A8DE6" fill-opacity="0.1">
                    <rect id="Rectangle" x="0" y="0" width="56" height="4"></rect>
                </g>
            </g>
            <g id="Bubble" transform="translate(119.000000, 97.000000) scale(-1, 1) translate(-119.000000, -97.000000) translate(72.000000, 76.000000)">
                <path d="M0,42 L12,32.4 L12,2 C12,0.8954305 12.8954305,2.02906125e-16 14,0 L92,0 C93.1045695,-2.02906125e-16 94,0.8954305 94,2 L94,40 C94,41.1045695 93.1045695,42 92,42 L0,42 Z" id="Combined-Shape" fill="#FFFFFF"></path>
                <g id="Text-/-Text" transform="translate(22.000000, 8.000000)" fill="#1A8DE6" fill-opacity="0.1">
                    <rect id="Rectangle" x="0" y="0" width="56" height="4"></rect>
                </g>
                <g id="Text-/-Text" transform="translate(22.000000, 16.000000)" fill="#1A8DE6" fill-opacity="0.1">
                    <rect id="Rectangle" x="0" y="0" width="56" height="4"></rect>
                </g>
                <g id="Text-/-Text" transform="translate(22.000000, 24.000000)" fill="#1A8DE6" fill-opacity="0.1">
                    <rect id="Rectangle" x="0" y="0" width="56" height="4"></rect>
                </g>
            </g>
            <g id="Avatar" transform="translate(15.000000, 29.000000)">
                <mask id="mask-2" fill="white">
                    <use xlink:href="#path-1"></use>
                </mask>
                <use id="Oval" fill-opacity="0.1" fill="#1A8DE6" fill-rule="evenodd" xlink:href="#path-1"></use>
                <circle id="Oval" fill-opacity="0.5" fill="#1A8DE6" fill-rule="evenodd" mask="url(#mask-2)" cx="11.5" cy="6.9" r="4.6"></circle>
                <circle id="Oval" fill-opacity="0.5" fill="#1A8DE6" fill-rule="evenodd" mask="url(#mask-2)" cx="11.5" cy="22.425" r="9.775"></circle>
            </g>
            <g id="Avatar" transform="translate(162.000000, 86.000000)">
                <mask id="mask-4" fill="white">
                    <use xlink:href="#path-3"></use>
                </mask>
                <use id="Oval" fill-opacity="0.1" fill="#1A8DE6" fill-rule="evenodd" xlink:href="#path-3"></use>
                <circle id="Oval" fill-opacity="0.5" fill="#1A8DE6" fill-rule="evenodd" mask="url(#mask-4)" cx="11.5" cy="6.9" r="4.6"></circle>
                <circle id="Oval" fill-opacity="0.5" fill="#1A8DE6" fill-rule="evenodd" mask="url(#mask-4)" cx="11.5" cy="22.425" r="9.775"></circle>
            </g>
            <g id="Bubble" transform="translate(34.000000, 19.000000)">
                <path d="M0,42 L12,32.4 L12,2 C12,0.8954305 12.8954305,2.02906125e-16 14,0 L92,0 C93.1045695,-2.02906125e-16 94,0.8954305 94,2 L94,40 C94,41.1045695 93.1045695,42 92,42 L0,42 Z" id="Combined-Shape" fill="#FFFFFF"></path>
                <g id="Text-/-Text" transform="translate(22.000000, 8.000000)" fill="#1A8DE6" fill-opacity="0.1">
                    <rect id="Rectangle" x="0" y="0" width="56" height="4"></rect>
                </g>
                <g id="Text-/-Text" transform="translate(22.000000, 16.000000)" fill="#1A8DE6" fill-opacity="0.1">
                    <rect id="Rectangle" x="0" y="0" width="56" height="4"></rect>
                </g>
                <g id="Text-/-Text" transform="translate(22.000000, 24.000000)" fill="#1A8DE6" fill-opacity="0.1">
                    <rect id="Rectangle" x="0" y="0" width="56" height="4"></rect>
                </g>
            </g>
            <g id="Avatar" transform="translate(15.000000, 143.000000)">
                <mask id="mask-6" fill="white">
                    <use xlink:href="#path-5"></use>
                </mask>
                <use id="Oval" fill-opacity="0.1" fill="#1A8DE6" fill-rule="evenodd" xlink:href="#path-5"></use>
                <circle id="Oval" fill-opacity="0.5" fill="#1A8DE6" fill-rule="evenodd" mask="url(#mask-6)" cx="11.5" cy="6.9" r="4.6"></circle>
                <circle id="Oval" fill-opacity="0.5" fill="#1A8DE6" fill-rule="evenodd" mask="url(#mask-6)" cx="11.5" cy="22.425" r="9.775"></circle>
            </g>
        </g>
    </g>
</svg>