<?xml version="1.0" encoding="UTF-8"?>
<svg width="200px" height="200px" viewBox="0 0 200 200" version="1.1" xmlns="http://www.w3.org/2000/svg" xmlns:xlink="http://www.w3.org/1999/xlink">
    <!-- Generator: Sketch 60.1 (88133) - https://sketch.com -->
    <title>svg/Success</title>
    <desc>Created with Sketch.</desc>
    <g id="User-Flows" stroke="none" stroke-width="1" fill="none" fill-rule="evenodd">
        <g id="Success">
            <rect fill="#FFFFFF" x="0" y="0" width="200" height="200"></rect>
            <g id="Background" fill="#1A8DE6" fill-opacity="0.1">
                <rect id="Rectangle" x="0" y="0" width="200" height="200"></rect>
            </g>
            <rect id="Rectangle" fill="#FFFFFF" x="45" y="44" width="110" height="112" rx="2"></rect>
            <g id="Button" transform="translate(83.000000, 137.000000)" fill="#1A8DE6" fill-opacity="0.5">
                <rect id="Rectangle" x="0" y="0" width="34" height="10" rx="2"></rect>
            </g>
            <g id="Text-/-Paragraph-/-center" transform="translate(57.000000, 87.000000)" fill="#1A8DE6">
                <rect id="Rectangle" fill-opacity="0.1" x="0" y="12" width="88" height="4"></rect>
                <rect id="Rectangle" fill-opacity="0.1" x="0" y="20" width="88" height="4"></rect>
                <rect id="Rectangle" fill-opacity="0.1" x="0" y="28" width="88" height="4"></rect>
                <rect id="Rectangle" fill-opacity="0.1" x="0" y="36" width="42.5806452" height="4"></rect>
                <g id="Text-/-Title" transform="translate(21.290323, 0.000000)" fill-opacity="0.25">
                    <rect id="Rectangle" x="0" y="0" width="42.5806452" height="6"></rect>
                </g>
            </g>
            <g id="Symbol-/-Check" transform="translate(85.000000, 56.000000)" fill="#1A8DE6">
                <rect id="Rectangle" transform="translate(8.500000, 12.974874) rotate(45.000000) translate(-8.500000, -12.974874) " x="-1" y="11.4748737" width="19" height="3"></rect>
                <rect id="Rectangle" transform="translate(22.489592, 10.500000) rotate(135.000000) translate(-22.489592, -10.500000) " x="9.48959236" y="9" width="26" height="3"></rect>
            </g>
        </g>
    </g>
</svg>