<?xml version="1.0" encoding="UTF-8"?>
<svg width="200px" height="200px" viewBox="0 0 200 200" version="1.1" xmlns="http://www.w3.org/2000/svg" xmlns:xlink="http://www.w3.org/1999/xlink">
    <!-- Generator: Sketch 60.1 (88133) - https://sketch.com -->
    <title>svg/Text</title>
    <desc>Created with Sketch.</desc>
    <g id="User-Flows" stroke="none" stroke-width="1" fill="none" fill-rule="evenodd">
        <g id="Text">
            <rect fill="#FFFFFF" x="0" y="0" width="200" height="200"></rect>
            <g id="Background" fill="#1A8DE6" fill-opacity="0.1">
                <rect id="Rectangle" x="0" y="0" width="200" height="200"></rect>
            </g>
            <g id="Text-/-Text" transform="translate(38.000000, 84.000000)" fill="#1A8DE6" fill-opacity="0.1">
                <rect id="Rectangle" x="0" y="0" width="124" height="4"></rect>
            </g>
            <g id="Text-/-Text" transform="translate(38.000000, 93.000000)" fill="#1A8DE6" fill-opacity="0.1">
                <rect id="Rectangle" x="0" y="0" width="108" height="4"></rect>
            </g>
            <g id="Text-/-Text" transform="translate(38.000000, 102.000000)" fill="#1A8DE6" fill-opacity="0.1">
                <rect id="Rectangle" x="0" y="0" width="124" height="4"></rect>
            </g>
            <g id="Text-/-Paragraph-/-left" transform="translate(38.000000, 32.000000)" fill="#1A8DE6">
                <rect id="Rectangle" fill-opacity="0.1" x="0" y="12" width="124" height="4"></rect>
                <rect id="Rectangle" fill-opacity="0.1" x="0" y="20" width="124" height="4"></rect>
                <rect id="Rectangle" fill-opacity="0.1" x="0" y="28" width="124" height="4"></rect>
                <rect id="Rectangle" fill-opacity="0.1" x="0" y="36" width="60" height="4"></rect>
                <g id="Text-/-Title" fill-opacity="0.25">
                    <rect id="Rectangle" x="0" y="0" width="60" height="6"></rect>
                </g>
            </g>
            <g id="Text-/-Paragraph-/-left" transform="translate(38.000000, 119.000000)" fill="#1A8DE6">
                <rect id="Rectangle" fill-opacity="0.1" x="0" y="12" width="124" height="4"></rect>
                <rect id="Rectangle" fill-opacity="0.1" x="0" y="20" width="124" height="4"></rect>
                <rect id="Rectangle" fill-opacity="0.1" x="0" y="28" width="124" height="4"></rect>
                <rect id="Rectangle" fill-opacity="0.1" x="0" y="36" width="60" height="4"></rect>
                <g id="Text-/-Title" fill-opacity="0.25">
                    <rect id="Rectangle" x="0" y="0" width="60" height="6"></rect>
                </g>
            </g>
            <g id="Text-/-Title" transform="translate(38.000000, 20.000000)" fill="#1A8DE6" fill-opacity="0.25">
                <rect id="Rectangle" x="0" y="0" width="41" height="6"></rect>
            </g>
            <g id="Text-/-Text" transform="translate(38.000000, 171.000000)" fill="#1A8DE6" fill-opacity="0.1">
                <rect id="Rectangle" x="0" y="0" width="44" height="4"></rect>
            </g>
            <g id="Text-/-Text" transform="translate(38.000000, 179.000000)" fill="#1A8DE6" fill-opacity="0.1">
                <rect id="Rectangle" x="0" y="0" width="111" height="4"></rect>
            </g>
            <g id="Text-/-Text" transform="translate(38.000000, 187.000000)" fill="#1A8DE6" fill-opacity="0.1">
                <rect id="Rectangle" x="0" y="0" width="88" height="4"></rect>
            </g>
        </g>
    </g>
</svg>